# xmcd
#
# Track frame offsets: 
#        150
#        20202
#        35785
#        47162
#        60305
#        75740
#        100090
#        118940
#        130940
#        146890
#        166805
#        182330
#        197752
#        214195
#        230025
#        247280
#        268775
#        286682
#        306655
#        325872
#
# Disc length: 4598 seconds
#
# Revision: 3
# Processed by: cddbd v1.5.2PL0 Copyright (c) Steve Scherf et al.
# Submitted via: ExactAudioCopyFreeDBPlugin 1.0
#
DISCID=3511f414
DTITLE=Various Artist - Smooth Grooves:  Cruisin' Classics [Rhino]
DYEAR=2002
DGENRE=SMB
TTITLE0=Smokey Robinson - Cruisin'
TTITLE1=William DeVaughn - Be Thankful for What You Got
TTITLE2=The Young Rascals - Groovin'
TTITLE3=Isley Brothers - Summer Breeze - Part I
TTITLE4=Malo - Suavecito
TTITLE5=Avalon - Rock and Roll Gangster
TTITLE6=Bloodstone - Natural High
TTITLE7=Hugh Masekela - Grazing in the Grass
TTITLE8=Bobby Womack - Woman's Gotta Have It
TTITLE9=Tierra - Together
TTITLE10=Commodores - Sweet Love
TTITLE11=Raydio - You Can't Change That
TTITLE12=Barry White - Playing Your Game Baby
TTITLE13=The Staple Singers - Let's Do it Again
TTITLE14=Bill Withers - Lovely Day
TTITLE15=The Stylistics - You Make Me Feel Brand New
TTITLE16=The Dramatics - Be My Girl
TTITLE17=Maze - Golden Time of the Day
TTITLE18=Heatwave - Mind Blowing Decisions
TTITLE19=The Spinners - Could It Be I'm Falling in Love
EXTD=
EXTT0=
EXTT1=
EXTT2=
EXTT3=
EXTT4=
EXTT5=
EXTT6=
EXTT7=
EXTT8=
EXTT9=
EXTT10=
EXTT11=
EXTT12=
EXTT13=
EXTT14=
EXTT15=
EXTT16=
EXTT17=
EXTT18=
EXTT19=
PLAYORDER=
